<svg width="171" height="71" viewBox="0 0 171 71" fill="none" xmlns="http://www.w3.org/2000/svg">
<rect x="0.333374" y="0.872314" width="170.667" height="69.3333" rx="5.33333" fill="#5E3BEE"/>
<path d="M38.6354 34.987V40.5391C38.4479 40.8168 38.1493 41.1293 37.7396 41.4766C37.3299 41.8168 36.7639 42.1155 36.0417 42.3724C35.3264 42.6224 34.4028 42.7474 33.2709 42.7474C32.3472 42.7474 31.4965 42.5877 30.7188 42.2682C29.9479 41.9418 29.2778 41.4696 28.7084 40.8516C28.1459 40.2266 27.7084 39.4696 27.3959 38.5807C27.0903 37.6849 26.9375 36.671 26.9375 35.5391V34.362C26.9375 33.23 27.0695 32.2196 27.3334 31.3307C27.6042 30.4418 28 29.6884 28.5209 29.0703C29.0417 28.4453 29.6806 27.9731 30.4375 27.6536C31.1945 27.3273 32.0625 27.1641 33.0417 27.1641C34.2014 27.1641 35.1702 27.3655 35.9479 27.7682C36.7327 28.1641 37.3438 28.7127 37.7813 29.4141C38.2257 30.1155 38.5104 30.9141 38.6354 31.8099H36.625C36.5347 31.2613 36.3542 30.7613 36.0834 30.3099C35.8195 29.8585 35.441 29.4974 34.9479 29.2266C34.4549 28.9488 33.8195 28.8099 33.0417 28.8099C32.3403 28.8099 31.7327 28.9384 31.2188 29.1953C30.7049 29.4523 30.2813 29.8203 29.9479 30.2995C29.6146 30.7786 29.3646 31.3585 29.1979 32.0391C29.0382 32.7196 28.9584 33.487 28.9584 34.3411V35.5391C28.9584 36.4141 29.059 37.1953 29.2604 37.8828C29.4688 38.5703 29.7639 39.1571 30.1459 39.6432C30.5278 40.1224 30.9827 40.487 31.5104 40.737C32.0452 40.987 32.6354 41.112 33.2813 41.112C33.9965 41.112 34.5764 41.053 35.0209 40.9349C35.4653 40.8099 35.8125 40.6641 36.0625 40.4974C36.3125 40.3238 36.5035 40.1606 36.6354 40.0078V36.612H33.125V34.987H38.6354ZM46.3542 42.7474C45.5695 42.7474 44.8577 42.6155 44.2188 42.3516C43.5868 42.0807 43.0417 41.7023 42.5834 41.2161C42.132 40.73 41.7847 40.1536 41.5417 39.487C41.2986 38.8203 41.1771 38.0911 41.1771 37.2995V36.862C41.1771 35.9453 41.3125 35.1293 41.5834 34.4141C41.8542 33.6918 42.2222 33.0807 42.6875 32.5807C43.1528 32.0807 43.6806 31.7023 44.2709 31.4453C44.8611 31.1884 45.4722 31.0599 46.1042 31.0599C46.9097 31.0599 47.6042 31.1988 48.1875 31.4766C48.7778 31.7543 49.2604 32.1432 49.6354 32.6432C50.0104 33.1363 50.2882 33.7196 50.4688 34.3932C50.6493 35.0599 50.7396 35.7891 50.7396 36.5807V37.4453H42.3229V35.8724H48.8125V35.7266C48.7847 35.2266 48.6806 34.7405 48.5 34.2682C48.3264 33.796 48.0486 33.4071 47.6667 33.1016C47.2847 32.796 46.7639 32.6432 46.1042 32.6432C45.6667 32.6432 45.2639 32.737 44.8959 32.9245C44.5278 33.105 44.2118 33.3759 43.9479 33.737C43.684 34.0981 43.4792 34.5391 43.3334 35.0599C43.1875 35.5807 43.1146 36.1814 43.1146 36.862V37.2995C43.1146 37.8342 43.1875 38.3377 43.3334 38.8099C43.4861 39.2752 43.7049 39.6849 43.9896 40.0391C44.2813 40.3932 44.632 40.671 45.0417 40.8724C45.4584 41.0738 45.9306 41.1745 46.4584 41.1745C47.1389 41.1745 47.7153 41.0356 48.1875 40.7578C48.6597 40.48 49.0729 40.1085 49.4271 39.6432L50.5938 40.5703C50.3507 40.9384 50.0417 41.2891 49.6667 41.6224C49.2917 41.9557 48.8299 42.2266 48.2813 42.4349C47.7396 42.6432 47.0972 42.7474 46.3542 42.7474ZM57.7084 31.2682V32.7474H51.6146V31.2682H57.7084ZM53.6771 28.5286H55.6042V39.7474C55.6042 40.1293 55.6632 40.4175 55.7813 40.612C55.8993 40.8064 56.0521 40.9349 56.2396 40.9974C56.4271 41.0599 56.6285 41.0911 56.8438 41.0911C57.0035 41.0911 57.1702 41.0773 57.3438 41.0495C57.5243 41.0148 57.6597 40.987 57.75 40.9661L57.7604 42.5391C57.6077 42.5877 57.4063 42.6328 57.1563 42.6745C56.9132 42.7231 56.6181 42.7474 56.2709 42.7474C55.7986 42.7474 55.3646 42.6536 54.9688 42.4661C54.5729 42.2786 54.257 41.9661 54.0209 41.5286C53.7917 41.0842 53.6771 40.487 53.6771 39.737V28.5286ZM67.7084 27.3724V42.5391H65.6979V27.3724H67.7084ZM73 33.6745V42.5391H71.0729V31.2682H72.8959L73 33.6745ZM72.5417 36.4766L71.7396 36.4453C71.7465 35.6745 71.8611 34.9627 72.0834 34.3099C72.3056 33.6502 72.6181 33.0773 73.0209 32.5911C73.4236 32.105 73.9028 31.73 74.4584 31.4661C75.0209 31.1953 75.6424 31.0599 76.3229 31.0599C76.8785 31.0599 77.3785 31.1363 77.8229 31.2891C78.2674 31.4349 78.6459 31.671 78.9584 31.9974C79.2778 32.3238 79.5209 32.7474 79.6875 33.2682C79.8542 33.7821 79.9375 34.4106 79.9375 35.1536V42.5391H78V35.1328C78 34.5425 77.9132 34.0703 77.7396 33.7161C77.566 33.355 77.3125 33.0946 76.9792 32.9349C76.6459 32.7682 76.2361 32.6849 75.75 32.6849C75.2709 32.6849 74.8334 32.7856 74.4375 32.987C74.0486 33.1884 73.7118 33.4661 73.4271 33.8203C73.1493 34.1745 72.9306 34.5807 72.7709 35.0391C72.6181 35.4905 72.5417 35.9696 72.5417 36.4766ZM93.6354 27.3724V42.5391H91.6563V27.3724H93.6354ZM98.5104 27.3724V29.0182H86.7917V27.3724H98.5104ZM98.9167 37.0286V36.7891C98.9167 35.9766 99.0347 35.2231 99.2709 34.5286C99.507 33.8273 99.8472 33.2196 100.292 32.7057C100.736 32.1849 101.274 31.7821 101.906 31.4974C102.538 31.2057 103.247 31.0599 104.031 31.0599C104.823 31.0599 105.535 31.2057 106.167 31.4974C106.806 31.7821 107.347 32.1849 107.792 32.7057C108.243 33.2196 108.587 33.8273 108.823 34.5286C109.059 35.2231 109.177 35.9766 109.177 36.7891V37.0286C109.177 37.8411 109.059 38.5946 108.823 39.2891C108.587 39.9835 108.243 40.5911 107.792 41.112C107.347 41.6259 106.809 42.0286 106.177 42.3203C105.552 42.605 104.844 42.7474 104.052 42.7474C103.26 42.7474 102.549 42.605 101.917 42.3203C101.285 42.0286 100.743 41.6259 100.292 41.112C99.8472 40.5911 99.507 39.9835 99.2709 39.2891C99.0347 38.5946 98.9167 37.8411 98.9167 37.0286ZM100.844 36.7891V37.0286C100.844 37.5911 100.91 38.1224 101.042 38.6224C101.174 39.1155 101.372 39.553 101.635 39.9349C101.906 40.3168 102.243 40.6189 102.646 40.8411C103.049 41.0564 103.517 41.1641 104.052 41.1641C104.58 41.1641 105.042 41.0564 105.438 40.8411C105.84 40.6189 106.174 40.3168 106.438 39.9349C106.701 39.553 106.899 39.1155 107.031 38.6224C107.17 38.1224 107.24 37.5911 107.24 37.0286V36.7891C107.24 36.2335 107.17 35.7092 107.031 35.2161C106.899 34.7161 106.698 34.2752 106.427 33.8932C106.163 33.5043 105.83 33.1988 105.427 32.9766C105.031 32.7543 104.566 32.6432 104.031 32.6432C103.503 32.6432 103.038 32.7543 102.635 32.9766C102.24 33.1988 101.906 33.5043 101.635 33.8932C101.372 34.2752 101.174 34.7161 101.042 35.2161C100.91 35.7092 100.844 36.2335 100.844 36.7891ZM118.49 39.9349V31.2682H120.427V42.5391H118.583L118.49 39.9349ZM118.854 37.5599L119.656 37.5391C119.656 38.2891 119.576 38.9835 119.417 39.6224C119.264 40.2543 119.014 40.803 118.667 41.2682C118.319 41.7335 117.865 42.0981 117.302 42.362C116.74 42.6189 116.056 42.7474 115.25 42.7474C114.701 42.7474 114.198 42.6675 113.74 42.5078C113.288 42.3481 112.899 42.1016 112.573 41.7682C112.247 41.4349 111.993 41.0009 111.813 40.4661C111.639 39.9314 111.552 39.2891 111.552 38.5391V31.2682H113.479V38.5599C113.479 39.0668 113.535 39.487 113.646 39.8203C113.764 40.1467 113.92 40.4071 114.115 40.6016C114.316 40.7891 114.538 40.921 114.781 40.9974C115.031 41.0738 115.288 41.112 115.552 41.112C116.372 41.112 117.021 40.9557 117.5 40.6432C117.979 40.3238 118.323 39.8967 118.531 39.362C118.747 38.8203 118.854 38.2196 118.854 37.5599ZM127.875 41.1641C128.333 41.1641 128.757 41.0703 129.146 40.8828C129.535 40.6953 129.854 40.4384 130.104 40.112C130.354 39.7786 130.497 39.4002 130.531 38.9766H132.365C132.33 39.6432 132.104 40.2648 131.688 40.8411C131.278 41.4106 130.74 41.8724 130.073 42.2266C129.406 42.5738 128.674 42.7474 127.875 42.7474C127.028 42.7474 126.288 42.5981 125.656 42.2995C125.031 42.0009 124.51 41.5911 124.094 41.0703C123.684 40.5495 123.375 39.9523 123.167 39.2786C122.965 38.5981 122.865 37.8793 122.865 37.1224V36.6849C122.865 35.928 122.965 35.2127 123.167 34.5391C123.375 33.8585 123.684 33.2578 124.094 32.737C124.51 32.2161 125.031 31.8064 125.656 31.5078C126.288 31.2092 127.028 31.0599 127.875 31.0599C128.757 31.0599 129.528 31.2405 130.188 31.6016C130.847 31.9557 131.365 32.4418 131.74 33.0599C132.122 33.671 132.33 34.3655 132.365 35.1432H130.531C130.497 34.678 130.365 34.2578 130.135 33.8828C129.913 33.5078 129.608 33.2092 129.219 32.987C128.837 32.7578 128.389 32.6432 127.875 32.6432C127.285 32.6432 126.788 32.7613 126.385 32.9974C125.99 33.2266 125.674 33.5391 125.438 33.9349C125.208 34.3238 125.042 34.7578 124.938 35.237C124.84 35.7092 124.792 36.1918 124.792 36.6849V37.1224C124.792 37.6155 124.84 38.1016 124.938 38.5807C125.035 39.0599 125.198 39.4939 125.427 39.8828C125.663 40.2717 125.979 40.5842 126.375 40.8203C126.778 41.0495 127.278 41.1641 127.875 41.1641ZM136.458 26.5391V42.5391H134.531V26.5391H136.458ZM136 36.4766L135.198 36.4453C135.205 35.6745 135.319 34.9627 135.542 34.3099C135.764 33.6502 136.076 33.0773 136.479 32.5911C136.882 32.105 137.361 31.73 137.917 31.4661C138.479 31.1953 139.101 31.0599 139.781 31.0599C140.337 31.0599 140.837 31.1363 141.281 31.2891C141.726 31.4349 142.104 31.671 142.417 31.9974C142.736 32.3238 142.979 32.7474 143.146 33.2682C143.313 33.7821 143.396 34.4106 143.396 35.1536V42.5391H141.458V35.1328C141.458 34.5425 141.372 34.0703 141.198 33.7161C141.024 33.355 140.771 33.0946 140.438 32.9349C140.104 32.7682 139.694 32.6849 139.208 32.6849C138.729 32.6849 138.292 32.7856 137.896 32.987C137.507 33.1884 137.17 33.4661 136.885 33.8203C136.608 34.1745 136.389 34.5807 136.229 35.0391C136.076 35.4905 136 35.9696 136 36.4766Z" fill="white"/>
</svg>
