<svg width="171" height="70" viewBox="0 0 171 70" fill="none" xmlns="http://www.w3.org/2000/svg">
<rect x="0.666606" y="0.999919" width="169.333" height="68" rx="4.66667" stroke="#5E3BEE" stroke-width="1.33333"/>
<path d="M41.2499 37.1771H43.2499C43.1458 38.1354 42.8714 38.9931 42.427 39.75C41.9826 40.5069 41.3541 41.1076 40.5416 41.5521C39.7291 41.9896 38.7152 42.2083 37.4999 42.2083C36.611 42.2083 35.802 42.0417 35.0728 41.7083C34.3506 41.375 33.7291 40.9028 33.2083 40.2917C32.6874 39.6736 32.2846 38.934 31.9999 38.0729C31.7221 37.2049 31.5833 36.2396 31.5833 35.1771V33.6667C31.5833 32.6042 31.7221 31.6424 31.9999 30.7812C32.2846 29.9132 32.6909 29.1701 33.2187 28.5521C33.7534 27.934 34.3958 27.4583 35.1458 27.125C35.8958 26.7917 36.7395 26.625 37.677 26.625C38.8228 26.625 39.7916 26.8403 40.5833 27.2708C41.3749 27.7014 41.9895 28.2986 42.427 29.0625C42.8714 29.8194 43.1458 30.6979 43.2499 31.6979H41.2499C41.1527 30.9896 40.9721 30.3819 40.7083 29.875C40.4444 29.3611 40.0694 28.9653 39.5833 28.6875C39.0971 28.4097 38.4617 28.2708 37.677 28.2708C37.0034 28.2708 36.4096 28.3993 35.8958 28.6562C35.3888 28.9132 34.9617 29.2778 34.6145 29.75C34.2742 30.2222 34.0173 30.7882 33.8437 31.4479C33.6701 32.1076 33.5833 32.8403 33.5833 33.6458V35.1771C33.5833 35.9201 33.6596 36.6181 33.8124 37.2708C33.9721 37.9236 34.2117 38.4965 34.5312 38.9896C34.8506 39.4826 35.2569 39.8715 35.7499 40.1562C36.243 40.434 36.8263 40.5729 37.4999 40.5729C38.3541 40.5729 39.0346 40.4375 39.5416 40.1667C40.0485 39.8958 40.4305 39.5069 40.6874 39C40.9513 38.4931 41.1388 37.8854 41.2499 37.1771ZM45.1874 36.4896V36.25C45.1874 35.4375 45.3055 34.684 45.5416 33.9896C45.7777 33.2882 46.118 32.6806 46.5624 32.1667C47.0069 31.6458 47.5451 31.2431 48.177 30.9583C48.8089 30.6667 49.5173 30.5208 50.302 30.5208C51.0937 30.5208 51.8055 30.6667 52.4374 30.9583C53.0763 31.2431 53.618 31.6458 54.0624 32.1667C54.5138 32.6806 54.8576 33.2882 55.0937 33.9896C55.3298 34.684 55.4478 35.4375 55.4478 36.25V36.4896C55.4478 37.3021 55.3298 38.0556 55.0937 38.75C54.8576 39.4444 54.5138 40.0521 54.0624 40.5729C53.618 41.0868 53.0798 41.4896 52.4478 41.7812C51.8228 42.066 51.1145 42.2083 50.3228 42.2083C49.5312 42.2083 48.8194 42.066 48.1874 41.7812C47.5555 41.4896 47.0138 41.0868 46.5624 40.5729C46.118 40.0521 45.7777 39.4444 45.5416 38.75C45.3055 38.0556 45.1874 37.3021 45.1874 36.4896ZM47.1145 36.25V36.4896C47.1145 37.0521 47.1805 37.5833 47.3124 38.0833C47.4444 38.5764 47.6423 39.0139 47.9062 39.3958C48.177 39.7778 48.5138 40.0799 48.9166 40.3021C49.3194 40.5174 49.7881 40.625 50.3228 40.625C50.8506 40.625 51.3124 40.5174 51.7083 40.3021C52.111 40.0799 52.4444 39.7778 52.7083 39.3958C52.9721 39.0139 53.1701 38.5764 53.302 38.0833C53.4409 37.5833 53.5103 37.0521 53.5103 36.4896V36.25C53.5103 35.6944 53.4409 35.1701 53.302 34.6771C53.1701 34.1771 52.9687 33.7361 52.6978 33.3542C52.4339 32.9653 52.1006 32.6597 51.6978 32.4375C51.302 32.2153 50.8367 32.1042 50.302 32.1042C49.7742 32.1042 49.3089 32.2153 48.9062 32.4375C48.5103 32.6597 48.177 32.9653 47.9062 33.3542C47.6423 33.7361 47.4444 34.1771 47.3124 34.6771C47.1805 35.1701 47.1145 35.6944 47.1145 36.25ZM59.7916 33.1354V42H57.8645V30.7292H59.6874L59.7916 33.1354ZM59.3333 35.9375L58.5312 35.9062C58.5381 35.1354 58.6527 34.4236 58.8749 33.7708C59.0971 33.1111 59.4096 32.5382 59.8124 32.0521C60.2152 31.566 60.6944 31.191 61.2499 30.9271C61.8124 30.6562 62.4339 30.5208 63.1145 30.5208C63.6701 30.5208 64.1701 30.5972 64.6145 30.75C65.0589 30.8958 65.4374 31.1319 65.7499 31.4583C66.0694 31.7847 66.3124 32.2083 66.4791 32.7292C66.6458 33.2431 66.7291 33.8715 66.7291 34.6146V42H64.7916V34.5937C64.7916 34.0035 64.7048 33.5312 64.5312 33.1771C64.3576 32.816 64.1041 32.5556 63.7708 32.3958C63.4374 32.2292 63.0277 32.1458 62.5416 32.1458C62.0624 32.1458 61.6249 32.2465 61.2291 32.4479C60.8402 32.6493 60.5034 32.9271 60.2187 33.2812C59.9409 33.6354 59.7221 34.0417 59.5624 34.5C59.4096 34.9514 59.3333 35.4306 59.3333 35.9375ZM74.3749 30.7292V32.2083H68.2812V30.7292H74.3749ZM70.3437 27.9896H72.2708V39.2083C72.2708 39.5903 72.3298 39.8785 72.4478 40.0729C72.5659 40.2674 72.7187 40.3958 72.9062 40.4583C73.0937 40.5208 73.2951 40.5521 73.5103 40.5521C73.6701 40.5521 73.8367 40.5382 74.0103 40.5104C74.1909 40.4757 74.3263 40.4479 74.4166 40.4271L74.427 42C74.2742 42.0486 74.0728 42.0938 73.8228 42.1354C73.5798 42.184 73.2846 42.2083 72.9374 42.2083C72.4652 42.2083 72.0312 42.1146 71.6353 41.9271C71.2395 41.7396 70.9235 41.4271 70.6874 40.9896C70.4583 40.5451 70.3437 39.9479 70.3437 39.1979V27.9896ZM83.2812 40.0729V34.2708C83.2812 33.8264 83.1909 33.441 83.0103 33.1146C82.8367 32.7812 82.5728 32.5243 82.2187 32.3437C81.8645 32.1632 81.427 32.0729 80.9062 32.0729C80.4201 32.0729 79.993 32.1562 79.6249 32.3229C79.2638 32.4896 78.9791 32.7083 78.7708 32.9792C78.5694 33.25 78.4687 33.5417 78.4687 33.8542H76.5416C76.5416 33.4514 76.6458 33.0521 76.8541 32.6562C77.0624 32.2604 77.361 31.9028 77.7499 31.5833C78.1458 31.2569 78.618 31 79.1666 30.8125C79.7221 30.6181 80.3402 30.5208 81.0208 30.5208C81.8402 30.5208 82.5624 30.6597 83.1874 30.9375C83.8194 31.2153 84.3124 31.6354 84.6666 32.1979C85.0277 32.7535 85.2083 33.4514 85.2083 34.2917V39.5417C85.2083 39.9167 85.2395 40.316 85.302 40.7396C85.3714 41.1632 85.4721 41.5278 85.6041 41.8333V42H83.5937C83.4964 41.7778 83.4201 41.4826 83.3645 41.1146C83.3089 40.7396 83.2812 40.3924 83.2812 40.0729ZM83.6145 35.1667L83.6353 36.5208H81.6874C81.1388 36.5208 80.6492 36.566 80.2187 36.6562C79.7881 36.7396 79.427 36.8681 79.1353 37.0417C78.8437 37.2153 78.6214 37.434 78.4687 37.6979C78.3159 37.9549 78.2395 38.2569 78.2395 38.6042C78.2395 38.9583 78.3194 39.2812 78.4791 39.5729C78.6388 39.8646 78.8784 40.0972 79.1978 40.2708C79.5242 40.4375 79.9235 40.5208 80.3958 40.5208C80.986 40.5208 81.5069 40.3958 81.9583 40.1458C82.4096 39.8958 82.7673 39.5903 83.0312 39.2292C83.302 38.8681 83.4478 38.5174 83.4687 38.1771L84.2916 39.1042C84.243 39.3958 84.111 39.7187 83.8958 40.0729C83.6805 40.4271 83.3923 40.7674 83.0312 41.0937C82.677 41.4132 82.2534 41.6806 81.7603 41.8958C81.2742 42.1042 80.7256 42.2083 80.1145 42.2083C79.3506 42.2083 78.6805 42.059 78.1041 41.7604C77.5346 41.4618 77.0902 41.0625 76.7708 40.5625C76.4583 40.0556 76.302 39.4896 76.302 38.8646C76.302 38.2604 76.4201 37.7292 76.6562 37.2708C76.8923 36.8056 77.2326 36.4201 77.677 36.1146C78.1214 35.8021 78.6562 35.566 79.2812 35.4062C79.9062 35.2465 80.6041 35.1667 81.3749 35.1667H83.6145ZM92.7499 40.625C93.2083 40.625 93.6319 40.5312 94.0208 40.3437C94.4096 40.1562 94.7291 39.8993 94.9791 39.5729C95.2291 39.2396 95.3714 38.8611 95.4062 38.4375H97.2395C97.2048 39.1042 96.9791 39.7257 96.5624 40.3021C96.1527 40.8715 95.6145 41.3333 94.9478 41.6875C94.2812 42.0347 93.5485 42.2083 92.7499 42.2083C91.9027 42.2083 91.1631 42.059 90.5312 41.7604C89.9062 41.4618 89.3853 41.0521 88.9687 40.5312C88.5589 40.0104 88.2499 39.4132 88.0416 38.7396C87.8402 38.059 87.7395 37.3403 87.7395 36.5833V36.1458C87.7395 35.3889 87.8402 34.6736 88.0416 34C88.2499 33.3194 88.5589 32.7187 88.9687 32.1979C89.3853 31.6771 89.9062 31.2674 90.5312 30.9687C91.1631 30.6701 91.9027 30.5208 92.7499 30.5208C93.6319 30.5208 94.4027 30.7014 95.0624 31.0625C95.7221 31.4167 96.2395 31.9028 96.6145 32.5208C96.9964 33.1319 97.2048 33.8264 97.2395 34.6042H95.4062C95.3714 34.1389 95.2395 33.7187 95.0103 33.3437C94.7881 32.9687 94.4826 32.6701 94.0937 32.4479C93.7117 32.2187 93.2638 32.1042 92.7499 32.1042C92.1596 32.1042 91.6631 32.2222 91.2603 32.4583C90.8645 32.6875 90.5485 33 90.3124 33.3958C90.0833 33.7847 89.9166 34.2187 89.8124 34.6979C89.7152 35.1701 89.6666 35.6528 89.6666 36.1458V36.5833C89.6666 37.0764 89.7152 37.5625 89.8124 38.0417C89.9096 38.5208 90.0728 38.9549 90.302 39.3437C90.5381 39.7326 90.8541 40.0451 91.2499 40.2812C91.6527 40.5104 92.1527 40.625 92.7499 40.625ZM104.125 30.7292V32.2083H98.0312V30.7292H104.125ZM100.094 27.9896H102.021V39.2083C102.021 39.5903 102.08 39.8785 102.198 40.0729C102.316 40.2674 102.469 40.3958 102.656 40.4583C102.844 40.5208 103.045 40.5521 103.26 40.5521C103.42 40.5521 103.587 40.5382 103.76 40.5104C103.941 40.4757 104.076 40.4479 104.167 40.4271L104.177 42C104.024 42.0486 103.823 42.0938 103.573 42.1354C103.33 42.184 103.035 42.2083 102.687 42.2083C102.215 42.2083 101.781 42.1146 101.385 41.9271C100.99 41.7396 100.674 41.4271 100.437 40.9896C100.208 40.5451 100.094 39.9479 100.094 39.1979V27.9896ZM112.604 26.8333H114.552L119.521 39.1979L124.479 26.8333H126.437L120.271 42H118.75L112.604 26.8333ZM111.969 26.8333H113.687L113.969 36.0833V42H111.969V26.8333ZM125.344 26.8333H127.062V42H125.062V36.0833L125.344 26.8333ZM134.979 42.2083C134.194 42.2083 133.483 42.0764 132.844 41.8125C132.212 41.5417 131.667 41.1632 131.208 40.6771C130.757 40.191 130.41 39.6146 130.167 38.9479C129.924 38.2812 129.802 37.5521 129.802 36.7604V36.3229C129.802 35.4062 129.937 34.5903 130.208 33.875C130.479 33.1528 130.847 32.5417 131.312 32.0417C131.778 31.5417 132.305 31.1632 132.896 30.9062C133.486 30.6493 134.097 30.5208 134.729 30.5208C135.535 30.5208 136.229 30.6597 136.812 30.9375C137.403 31.2153 137.885 31.6042 138.26 32.1042C138.635 32.5972 138.913 33.1806 139.094 33.8542C139.274 34.5208 139.365 35.25 139.365 36.0417V36.9062H130.948V35.3333H137.437V35.1875C137.41 34.6875 137.305 34.2014 137.125 33.7292C136.951 33.2569 136.674 32.8681 136.292 32.5625C135.91 32.2569 135.389 32.1042 134.729 32.1042C134.292 32.1042 133.889 32.1979 133.521 32.3854C133.153 32.566 132.837 32.8368 132.573 33.1979C132.309 33.559 132.104 34 131.958 34.5208C131.812 35.0417 131.74 35.6424 131.74 36.3229V36.7604C131.74 37.2951 131.812 37.7986 131.958 38.2708C132.111 38.7361 132.33 39.1458 132.615 39.5C132.906 39.8542 133.257 40.1319 133.667 40.3333C134.083 40.5347 134.555 40.6354 135.083 40.6354C135.764 40.6354 136.34 40.4965 136.812 40.2187C137.285 39.941 137.698 39.5694 138.052 39.1042L139.219 40.0312C138.976 40.3993 138.667 40.75 138.292 41.0833C137.917 41.4167 137.455 41.6875 136.906 41.8958C136.365 42.1042 135.722 42.2083 134.979 42.2083Z" fill="#5E3BEE"/>
</svg>
