<svg width="33" height="33" viewBox="0 0 33 33" fill="none" xmlns="http://www.w3.org/2000/svg">
<path d="M22.6666 8.65576H18.6666C17.9302 8.65576 17.3333 9.25272 17.3333 9.9891V13.9891H22.6666C22.8182 13.9857 22.9621 14.0563 23.0522 14.1783C23.1423 14.3003 23.1677 14.4584 23.1199 14.6024L22.1333 17.5358C22.0423 17.805 21.7907 17.987 21.5066 17.9891H17.3333V27.9891C17.3333 28.3572 17.0347 28.6558 16.6666 28.6558H13.3333C12.9651 28.6558 12.6666 28.3572 12.6666 27.9891V17.9891H10.6666C10.2984 17.9891 9.99994 17.6906 9.99994 17.3224V14.6558C9.99994 14.2876 10.2984 13.9891 10.6666 13.9891H12.6666V9.9891C12.6666 7.04358 15.0545 4.65576 17.9999 4.65576H22.6666C23.0347 4.65576 23.3333 4.95424 23.3333 5.32243V7.9891C23.3333 8.35728 23.0347 8.65576 22.6666 8.65576Z" fill="black"/>
</svg>
