<svg width="33" height="33" viewBox="0 0 33 33" fill="none" xmlns="http://www.w3.org/2000/svg">
<path fill-rule="evenodd" clip-rule="evenodd" d="M22 4.65576H11.3333C7.6514 4.65576 4.66663 7.64054 4.66663 11.3224V21.9891C4.66663 25.671 7.6514 28.6558 11.3333 28.6558H22C25.6818 28.6558 28.6666 25.671 28.6666 21.9891V11.3224C28.6666 7.64054 25.6818 4.65576 22 4.65576ZM26.3333 21.9891C26.326 24.3792 24.3901 26.3151 22 26.3224H11.3333C8.94309 26.3151 7.00728 24.3792 6.99996 21.9891V11.3224C7.00728 8.93223 8.94309 6.99642 11.3333 6.9891H22C24.3901 6.99642 26.326 8.93223 26.3333 11.3224V21.9891ZM23 11.6558C23.7364 11.6558 24.3333 11.0588 24.3333 10.3224C24.3333 9.58606 23.7364 8.9891 23 8.9891C22.2636 8.9891 21.6666 9.58606 21.6666 10.3224C21.6666 11.0588 22.2636 11.6558 23 11.6558ZM16.6666 10.6558C13.3529 10.6558 10.6666 13.3421 10.6666 16.6558C10.6666 19.9695 13.3529 22.6558 16.6666 22.6558C19.9804 22.6558 22.6666 19.9695 22.6666 16.6558C22.6702 15.0634 22.0392 13.5352 20.9132 12.4092C19.7872 11.2832 18.259 10.6522 16.6666 10.6558ZM13 16.6558C13 18.6808 14.6416 20.3224 16.6666 20.3224C18.6917 20.3224 20.3333 18.6808 20.3333 16.6558C20.3333 14.6307 18.6917 12.9891 16.6666 12.9891C14.6416 12.9891 13 14.6307 13 16.6558Z" fill="black"/>
</svg>
