<svg width="33" height="33" viewBox="0 0 33 33" fill="none" xmlns="http://www.w3.org/2000/svg">
<path fill-rule="evenodd" clip-rule="evenodd" d="M7.33329 4.65576H26C27.4728 4.65576 28.6666 5.84967 28.6666 7.32243V25.9891C28.6666 27.4619 27.4728 28.6558 26 28.6558H7.33329C5.86053 28.6558 4.66663 27.4619 4.66663 25.9891V7.32243C4.66663 5.84967 5.86053 4.65576 7.33329 4.65576ZM11.3333 24.6558C11.7015 24.6558 12 24.3572 12 23.9891V14.6558C12 14.2876 11.7015 13.9891 11.3333 13.9891H9.33329C8.96511 13.9891 8.66663 14.2876 8.66663 14.6558V23.9891C8.66663 24.3572 8.96511 24.6558 9.33329 24.6558H11.3333ZM10.3333 12.6558C9.22872 12.6558 8.33329 11.7603 8.33329 10.6558C8.33329 9.55119 9.22872 8.65576 10.3333 8.65576C11.4379 8.65576 12.3333 9.55119 12.3333 10.6558C12.3333 11.7603 11.4379 12.6558 10.3333 12.6558ZM24 24.6558C24.3681 24.6558 24.6666 24.3572 24.6666 23.9891V17.8558C24.71 15.7368 23.1434 13.9285 21.04 13.6691C19.5693 13.5348 18.1444 14.2216 17.3333 15.4558V14.6558C17.3333 14.2876 17.0348 13.9891 16.6666 13.9891H14.6666C14.2985 13.9891 14 14.2876 14 14.6558V23.9891C14 24.3572 14.2985 24.6558 14.6666 24.6558H16.6666C17.0348 24.6558 17.3333 24.3572 17.3333 23.9891V18.9891C17.3333 17.8846 18.2288 16.9891 19.3333 16.9891C20.4378 16.9891 21.3333 17.8846 21.3333 18.9891V23.9891C21.3333 24.3572 21.6318 24.6558 22 24.6558H24Z" fill="black"/>
</svg>
