<svg width="54" height="54" viewBox="0 0 54 54" fill="none" xmlns="http://www.w3.org/2000/svg">
<g clip-path="url(#clip0_0_216)">
<path d="M38.7073 0.23999H15.2924C12.5328 0.23999 10.275 2.49786 10.275 5.25747V48.7423C10.275 51.5019 12.5328 53.7598 15.2924 53.7598H38.7073C41.467 53.7598 43.7248 51.5019 43.7248 48.7423V5.25747C43.7248 2.49786 41.467 0.23999 38.7073 0.23999ZM20.3099 2.74873H33.6899V4.42122H20.3099V2.74873ZM26.9999 50.4148C26.1127 50.4148 25.2619 50.0624 24.6346 49.4351C24.0073 48.8077 23.6549 47.9569 23.6549 47.0698C23.6549 46.1826 24.0073 45.3318 24.6346 44.7045C25.2619 44.0772 26.1127 43.7248 26.9999 43.7248C27.887 43.7248 28.7378 44.0772 29.3652 44.7045C29.9925 45.3318 30.3449 46.1826 30.3449 47.0698C30.3449 47.9569 29.9925 48.8077 29.3652 49.4351C28.7378 50.0624 27.887 50.4148 26.9999 50.4148ZM40.3798 40.3798H13.6199V6.92996H40.3798V40.3798Z" fill="#006B6A"/>
</g>
<defs>
<clipPath id="clip0_0_216">
<rect width="53.5198" height="53.5198" fill="white" transform="translate(0.23999 0.23999)"/>
</clipPath>
</defs>
</svg>
