<svg width="235" height="81" viewBox="0 0 235 81" fill="none" xmlns="http://www.w3.org/2000/svg">
<g filter="url(#filter0_d_0_159)">
<rect x="2.66656" y="1.83342" width="229" height="74.6667" rx="10.6667" fill="#7E69D3"/>
<path d="M40.6666 25.2778C38.8427 25.2778 37.0366 25.637 35.3515 26.335C33.6664 27.033 32.1353 28.0561 30.8456 29.3458C28.2409 31.9505 26.7776 35.4832 26.7776 39.1667C26.7776 45.3057 30.7638 50.514 36.2777 52.3613C36.9721 52.4724 37.1944 52.0418 37.1944 51.6668V49.3196C33.3471 50.1529 32.5277 47.4584 32.5277 47.4584C31.8888 45.8473 30.986 45.4168 30.986 45.4168C29.7221 44.5557 31.0832 44.5834 31.0832 44.5834C32.4721 44.6807 33.2082 46.014 33.2082 46.014C34.4166 48.1251 36.4583 47.5001 37.2499 47.1668C37.3749 46.264 37.736 45.6529 38.1249 45.3057C35.0416 44.9584 31.8055 43.764 31.8055 38.4723C31.8055 36.9306 32.3332 35.6945 33.236 34.7084C33.0971 34.3612 32.611 32.9167 33.3749 31.0417C33.3749 31.0417 34.5416 30.6667 37.1944 32.4584C38.2916 32.1528 39.486 32 40.6666 32C41.8472 32 43.0416 32.1528 44.1388 32.4584C46.7916 30.6667 47.9583 31.0417 47.9583 31.0417C48.7222 32.9167 48.2361 34.3612 48.0972 34.7084C49 35.6945 49.5278 36.9306 49.5278 38.4723C49.5278 43.7779 46.2777 44.9445 43.1805 45.2918C43.6805 45.7223 44.1388 46.5696 44.1388 47.8612V51.6668C44.1388 52.0418 44.3611 52.4863 45.0694 52.3613C50.5833 50.5001 54.5556 45.3057 54.5556 39.1667C54.5556 37.3428 54.1963 35.5368 53.4983 33.8517C52.8003 32.1666 51.7773 30.6355 50.4876 29.3458C49.1979 28.0561 47.6668 27.033 45.9817 26.335C44.2966 25.637 42.4905 25.2778 40.6666 25.2778Z" fill="white"/>
<path d="M69.9896 43.8647L74.4584 31.0001H76.6355L71.0209 46.1667H69.4688L69.9896 43.8647ZM65.8125 31.0001L70.2396 43.8647L70.7917 46.1667H69.2396L63.6355 31.0001H65.8125ZM80.4792 34.8959V46.1667H78.5417V34.8959H80.4792ZM78.3959 31.9063C78.3959 31.5938 78.4896 31.3299 78.6771 31.1147C78.8716 30.8994 79.1563 30.7917 79.5313 30.7917C79.8993 30.7917 80.1806 30.8994 80.375 31.1147C80.5764 31.3299 80.6771 31.5938 80.6771 31.9063C80.6771 32.2049 80.5764 32.4619 80.375 32.6772C80.1806 32.8855 79.8993 32.9897 79.5313 32.9897C79.1563 32.9897 78.8716 32.8855 78.6771 32.6772C78.4896 32.4619 78.3959 32.2049 78.3959 31.9063ZM90.1355 43.1772C90.1355 42.8994 90.073 42.6424 89.948 42.4063C89.8299 42.1633 89.5834 41.9445 89.2084 41.7501C88.8403 41.5487 88.2848 41.3751 87.5417 41.2292C86.9167 41.0973 86.3507 40.9411 85.8438 40.7605C85.3438 40.5799 84.9167 40.3612 84.5625 40.1042C84.2153 39.8473 83.948 39.5452 83.7605 39.198C83.573 38.8508 83.4792 38.4445 83.4792 37.9792C83.4792 37.5348 83.5764 37.1147 83.7709 36.7188C83.9723 36.323 84.2535 35.9723 84.6146 35.6667C84.9827 35.3612 85.4237 35.1216 85.9375 34.948C86.4514 34.7744 87.0243 34.6876 87.6563 34.6876C88.5591 34.6876 89.3299 34.8473 89.9688 35.1667C90.6077 35.4862 91.0973 35.9133 91.4375 36.448C91.7778 36.9758 91.948 37.5626 91.948 38.2084H90.0209C90.0209 37.8959 89.9271 37.5938 89.7396 37.3022C89.5591 37.0036 89.2917 36.757 88.9375 36.5626C88.5903 36.3681 88.1632 36.2709 87.6563 36.2709C87.1216 36.2709 86.6875 36.3542 86.3542 36.5209C86.0278 36.6806 85.7882 36.8855 85.6355 37.1355C85.4896 37.3855 85.4167 37.6494 85.4167 37.9272C85.4167 38.1355 85.4514 38.323 85.5209 38.4897C85.5973 38.6494 85.7292 38.7987 85.9167 38.9376C86.1042 39.0695 86.3681 39.1945 86.7084 39.3126C87.0487 39.4306 87.4827 39.5487 88.0105 39.6667C88.9341 39.8751 89.6945 40.1251 90.2917 40.4167C90.8889 40.7084 91.3334 41.0661 91.625 41.4897C91.9167 41.9133 92.0625 42.4272 92.0625 43.0313C92.0625 43.5244 91.9584 43.9758 91.75 44.3855C91.5487 44.7952 91.2535 45.1494 90.8646 45.448C90.4827 45.7397 90.0243 45.9688 89.4896 46.1355C88.9618 46.2952 88.3681 46.3751 87.7084 46.3751C86.7153 46.3751 85.875 46.198 85.1875 45.8438C84.5 45.4897 83.9792 45.0313 83.625 44.4688C83.2709 43.9063 83.0938 43.3126 83.0938 42.6876H85.0313C85.0591 43.2154 85.2118 43.6355 85.4896 43.948C85.7674 44.2536 86.1077 44.4723 86.5105 44.6042C86.9132 44.7292 87.3125 44.7917 87.7084 44.7917C88.2362 44.7917 88.6771 44.7223 89.0313 44.5834C89.3924 44.4445 89.6667 44.2536 89.8542 44.0105C90.0417 43.7674 90.1355 43.4897 90.1355 43.1772ZM96.6875 34.8959V46.1667H94.75V34.8959H96.6875ZM94.6042 31.9063C94.6042 31.5938 94.698 31.3299 94.8855 31.1147C95.0799 30.8994 95.3646 30.7917 95.7396 30.7917C96.1077 30.7917 96.3889 30.8994 96.5834 31.1147C96.7848 31.3299 96.8855 31.5938 96.8855 31.9063C96.8855 32.2049 96.7848 32.4619 96.5834 32.6772C96.3889 32.8855 96.1077 32.9897 95.7396 32.9897C95.3646 32.9897 95.0799 32.8855 94.8855 32.6772C94.698 32.4619 94.6042 32.2049 94.6042 31.9063ZM104.5 34.8959V36.3751H98.4063V34.8959H104.5ZM100.469 32.1563H102.396V43.3751C102.396 43.757 102.455 44.0452 102.573 44.2397C102.691 44.4341 102.844 44.5626 103.031 44.6251C103.219 44.6876 103.42 44.7188 103.635 44.7188C103.795 44.7188 103.962 44.7049 104.135 44.6772C104.316 44.6424 104.451 44.6147 104.542 44.5938L104.552 46.1667C104.399 46.2154 104.198 46.2605 103.948 46.3022C103.705 46.3508 103.41 46.3751 103.063 46.3751C102.59 46.3751 102.156 46.2813 101.76 46.0938C101.365 45.9063 101.049 45.5938 100.813 45.1563C100.583 44.7119 100.469 44.1147 100.469 43.3647V32.1563ZM112.979 31.0001H114.927L119.896 43.3647L124.854 31.0001H126.813L120.646 46.1667H119.125L112.979 31.0001ZM112.344 31.0001H114.063L114.344 40.2501V46.1667H112.344V31.0001ZM125.719 31.0001H127.438V46.1667H125.438V40.2501L125.719 31.0001ZM133.844 45.0001L136.979 34.8959H139.042L134.521 47.9063C134.417 48.1841 134.278 48.4827 134.104 48.8022C133.938 49.1286 133.722 49.4376 133.458 49.7292C133.194 50.0209 132.875 50.257 132.5 50.4376C132.132 50.6251 131.691 50.7188 131.177 50.7188C131.024 50.7188 130.83 50.698 130.594 50.6563C130.358 50.6147 130.191 50.5799 130.094 50.5522L130.083 48.9897C130.139 48.9966 130.226 49.0036 130.344 49.0105C130.469 49.0244 130.556 49.0313 130.604 49.0313C131.042 49.0313 131.413 48.9723 131.719 48.8542C132.024 48.7431 132.281 48.5522 132.49 48.2813C132.705 48.0174 132.889 47.6529 133.042 47.1876L133.844 45.0001ZM131.542 34.8959L134.469 43.6459L134.969 45.6772L133.583 46.3855L129.438 34.8959H131.542ZM157.573 38.6147V44.1667C157.385 44.4445 157.087 44.757 156.677 45.1042C156.267 45.4445 155.701 45.7431 154.979 46.0001C154.264 46.2501 153.34 46.3751 152.208 46.3751C151.285 46.3751 150.434 46.2154 149.656 45.8959C148.885 45.5695 148.215 45.0973 147.646 44.4792C147.083 43.8542 146.646 43.0973 146.333 42.2084C146.028 41.3126 145.875 40.2987 145.875 39.1667V37.9897C145.875 36.8577 146.007 35.8473 146.271 34.9584C146.542 34.0695 146.938 33.3161 147.458 32.698C147.979 32.073 148.618 31.6008 149.375 31.2813C150.132 30.9549 151 30.7917 151.979 30.7917C153.139 30.7917 154.108 30.9931 154.885 31.3959C155.67 31.7917 156.281 32.3404 156.719 33.0417C157.163 33.7431 157.448 34.5417 157.573 35.4376H155.563C155.472 34.889 155.292 34.389 155.021 33.9376C154.757 33.4862 154.379 33.1251 153.885 32.8542C153.392 32.5765 152.757 32.4376 151.979 32.4376C151.278 32.4376 150.67 32.5661 150.156 32.823C149.642 33.0799 149.219 33.448 148.885 33.9272C148.552 34.4063 148.302 34.9862 148.135 35.6667C147.976 36.3473 147.896 37.1147 147.896 37.9688V39.1667C147.896 40.0417 147.997 40.823 148.198 41.5105C148.406 42.198 148.701 42.7848 149.083 43.2709C149.465 43.7501 149.92 44.1147 150.448 44.3647C150.983 44.6147 151.573 44.7397 152.219 44.7397C152.934 44.7397 153.514 44.6806 153.958 44.5626C154.403 44.4376 154.75 44.2917 155 44.1251C155.25 43.9515 155.441 43.7883 155.573 43.6355V40.2397H152.063V38.6147H157.573ZM162.708 34.8959V46.1667H160.771V34.8959H162.708ZM160.625 31.9063C160.625 31.5938 160.719 31.3299 160.906 31.1147C161.101 30.8994 161.385 30.7917 161.76 30.7917C162.129 30.7917 162.41 30.8994 162.604 31.1147C162.806 31.3299 162.906 31.5938 162.906 31.9063C162.906 32.2049 162.806 32.4619 162.604 32.6772C162.41 32.8855 162.129 32.9897 161.76 32.9897C161.385 32.9897 161.101 32.8855 160.906 32.6772C160.719 32.4619 160.625 32.2049 160.625 31.9063ZM170.521 34.8959V36.3751H164.427V34.8959H170.521ZM166.49 32.1563H168.417V43.3751C168.417 43.757 168.476 44.0452 168.594 44.2397C168.712 44.4341 168.865 44.5626 169.052 44.6251C169.24 44.6876 169.441 44.7188 169.656 44.7188C169.816 44.7188 169.983 44.7049 170.156 44.6772C170.337 44.6424 170.472 44.6147 170.563 44.5938L170.573 46.1667C170.42 46.2154 170.219 46.2605 169.969 46.3022C169.726 46.3508 169.431 46.3751 169.083 46.3751C168.611 46.3751 168.177 46.2813 167.781 46.0938C167.385 45.9063 167.069 45.5938 166.833 45.1563C166.604 44.7119 166.49 44.1147 166.49 43.3647V32.1563ZM182.979 37.5209V39.1563H174.771V37.5209H182.979ZM175.083 31.0001V46.1667H173.073V31.0001H175.083ZM184.729 31.0001V46.1667H182.729V31.0001H184.729ZM194.906 43.5626V34.8959H196.844V46.1667H195L194.906 43.5626ZM195.271 41.1876L196.073 41.1667C196.073 41.9167 195.993 42.6112 195.833 43.2501C195.681 43.882 195.431 44.4306 195.083 44.8959C194.736 45.3612 194.281 45.7258 193.719 45.9897C193.156 46.2466 192.472 46.3751 191.667 46.3751C191.118 46.3751 190.615 46.2952 190.156 46.1355C189.705 45.9758 189.316 45.7292 188.99 45.3959C188.663 45.0626 188.41 44.6286 188.229 44.0938C188.056 43.5591 187.969 42.9167 187.969 42.1667V34.8959H189.896V42.1876C189.896 42.6945 189.951 43.1147 190.063 43.448C190.181 43.7744 190.337 44.0348 190.531 44.2292C190.733 44.4167 190.955 44.5487 191.198 44.6251C191.448 44.7015 191.705 44.7397 191.969 44.7397C192.788 44.7397 193.438 44.5834 193.917 44.2709C194.396 43.9515 194.74 43.5244 194.948 42.9897C195.163 42.448 195.271 41.8473 195.271 41.1876ZM199.771 30.1667H201.708V43.9792L201.542 46.1667H199.771V30.1667ZM209.323 40.4376V40.6563C209.323 41.4758 209.226 42.2362 209.031 42.9376C208.837 43.632 208.552 44.2362 208.177 44.7501C207.802 45.264 207.344 45.6633 206.802 45.948C206.26 46.2327 205.639 46.3751 204.938 46.3751C204.222 46.3751 203.594 46.2536 203.052 46.0105C202.517 45.7605 202.066 45.4029 201.698 44.9376C201.33 44.4723 201.035 43.9098 200.813 43.2501C200.597 42.5904 200.448 41.8473 200.365 41.0209V40.0626C200.448 39.2292 200.597 38.4827 200.813 37.823C201.035 37.1633 201.33 36.6008 201.698 36.1355C202.066 35.6633 202.517 35.3056 203.052 35.0626C203.587 34.8126 204.208 34.6876 204.917 34.6876C205.625 34.6876 206.254 34.8265 206.802 35.1042C207.351 35.3751 207.809 35.764 208.177 36.2709C208.552 36.7779 208.837 37.3855 209.031 38.0938C209.226 38.7952 209.323 39.5765 209.323 40.4376ZM207.385 40.6563V40.4376C207.385 39.8751 207.333 39.3473 207.229 38.8542C207.125 38.3542 206.958 37.9167 206.729 37.5417C206.5 37.1598 206.198 36.8612 205.823 36.6459C205.448 36.4237 204.986 36.3126 204.438 36.3126C203.951 36.3126 203.528 36.3959 203.167 36.5626C202.813 36.7292 202.51 36.9549 202.26 37.2397C202.01 37.5174 201.806 37.8369 201.646 38.198C201.493 38.5522 201.379 38.9202 201.302 39.3022V41.8126C201.413 42.2987 201.594 42.7674 201.844 43.2188C202.101 43.6633 202.441 44.0279 202.865 44.3126C203.295 44.5973 203.826 44.7397 204.458 44.7397C204.979 44.7397 205.424 44.6355 205.792 44.4272C206.167 44.2119 206.469 43.9167 206.698 43.5417C206.934 43.1667 207.108 42.7327 207.219 42.2397C207.33 41.7466 207.385 41.2188 207.385 40.6563Z" fill="white"/>
</g>
<defs>
<filter id="filter0_d_0_159" x="-0.000101805" y="0.500086" width="234.334" height="80" filterUnits="userSpaceOnUse" color-interpolation-filters="sRGB">
<feFlood flood-opacity="0" result="BackgroundImageFix"/>
<feColorMatrix in="SourceAlpha" type="matrix" values="0 0 0 0 0 0 0 0 0 0 0 0 0 0 0 0 0 0 127 0" result="hardAlpha"/>
<feOffset dy="1.33333"/>
<feGaussianBlur stdDeviation="1.33333"/>
<feColorMatrix type="matrix" values="0 0 0 0 0.0627451 0 0 0 0 0.0941176 0 0 0 0 0.156863 0 0 0 0.05 0"/>
<feBlend mode="normal" in2="BackgroundImageFix" result="effect1_dropShadow_0_159"/>
<feBlend mode="normal" in="SourceGraphic" in2="effect1_dropShadow_0_159" result="shape"/>
</filter>
</defs>
</svg>
