<svg width="155" height="26" viewBox="0 0 155 26" fill="none" xmlns="http://www.w3.org/2000/svg">
<g clip-path="url(#clip0_348_7)">
<path d="M12.0945 0.952688C12.5528 -0.135923 14.1138 -0.135922 14.5722 0.952691L17.2772 7.37788C17.4705 7.83681 17.9074 8.15038 18.4089 8.1901L25.4302 8.7462C26.6199 8.84042 27.1022 10.3071 26.1959 11.0741L20.8464 15.6011C20.4643 15.9245 20.2973 16.4319 20.4141 16.9153L22.0484 23.6842C22.3253 24.831 21.0625 25.7376 20.044 25.123L14.0327 21.4956C13.6033 21.2365 13.0633 21.2365 12.634 21.4956L6.62265 25.123C5.60415 25.7376 4.34127 24.831 4.61818 23.6842L6.25256 16.9153C6.3693 16.4319 6.20243 15.9245 5.82034 15.6011L0.47075 11.0741C-0.435624 10.3071 0.0467571 8.84042 1.23639 8.7462L8.25781 8.1901C8.75933 8.15038 9.19621 7.83681 9.38942 7.37788L12.0945 0.952688Z" fill="#006B6A"/>
<path d="M44.0944 0.952688C44.5528 -0.135923 46.1138 -0.135922 46.5721 0.952691L49.2771 7.37788C49.4705 7.83681 49.9073 8.15038 50.4088 8.1901L57.4302 8.7462C58.6198 8.84042 59.1022 10.3071 58.1958 11.0741L52.8463 15.6011C52.4642 15.9245 52.2973 16.4319 52.414 16.9153L54.0484 23.6842C54.3253 24.831 53.0625 25.7376 52.0439 25.123L46.0326 21.4956C45.6033 21.2365 45.0633 21.2365 44.6339 21.4956L38.6226 25.123C37.6041 25.7376 36.3412 24.831 36.6181 23.6842L38.2525 16.9153C38.3692 16.4319 38.2024 15.9245 37.8203 15.6011L32.4707 11.0741C31.5643 10.3071 32.0467 8.84042 33.2363 8.7462L40.2577 8.1901C40.7593 8.15038 41.1961 7.83681 41.3894 7.37788L44.0944 0.952688Z" fill="#006B6A"/>
<path d="M76.0943 0.952688C76.5526 -0.135923 78.1137 -0.135922 78.572 0.952691L81.277 7.37788C81.4703 7.83681 81.9072 8.15038 82.4087 8.1901L89.43 8.7462C90.6197 8.84042 91.102 10.3071 90.1957 11.0741L84.8462 15.6011C84.4641 15.9245 84.2971 16.4319 84.4139 16.9153L86.0483 23.6842C86.3251 24.831 85.0623 25.7376 84.0438 25.123L78.0325 21.4956C77.6032 21.2365 77.0632 21.2365 76.6338 21.4956L70.6225 25.123C69.604 25.7376 68.3411 24.831 68.618 23.6842L70.2524 16.9153C70.3691 16.4319 70.2022 15.9245 69.8202 15.6011L64.4706 11.0741C63.5642 10.3071 64.0466 8.84042 65.2362 8.7462L72.2576 8.1901C72.7591 8.15038 73.196 7.83681 73.3892 7.37788L76.0943 0.952688Z" fill="#006B6A"/>
<path d="M108.094 0.952688C108.553 -0.135923 110.114 -0.135922 110.572 0.952691L113.277 7.37788C113.47 7.83681 113.907 8.15038 114.409 8.1901L121.43 8.7462C122.62 8.84042 123.102 10.3071 122.196 11.0741L116.846 15.6011C116.464 15.9245 116.297 16.4319 116.414 16.9153L118.048 23.6842C118.325 24.831 117.062 25.7376 116.044 25.123L110.033 21.4956C109.603 21.2365 109.063 21.2365 108.634 21.4956L102.623 25.123C101.604 25.7376 100.341 24.831 100.618 23.6842L102.252 16.9153C102.369 16.4319 102.202 15.9245 101.82 15.6011L96.4706 11.0741C95.5643 10.3071 96.0466 8.84042 97.2363 8.7462L104.258 8.1901C104.759 8.15038 105.196 7.83681 105.389 7.37788L108.094 0.952688Z" fill="#006B6A"/>
<path d="M140.094 0.952688C140.553 -0.135923 142.114 -0.135922 142.572 0.952691L145.277 7.37788C145.47 7.83681 145.907 8.15038 146.409 8.1901L153.43 8.7462C154.62 8.84042 155.102 10.3071 154.196 11.0741L148.846 15.6011C148.464 15.9245 148.297 16.4319 148.414 16.9153L150.048 23.6842C150.325 24.831 149.062 25.7376 148.044 25.123L142.032 21.4956C141.603 21.2365 141.063 21.2365 140.634 21.4956L134.622 25.123C133.604 25.7376 132.341 24.831 132.618 23.6842L134.252 16.9153C134.369 16.4319 134.202 15.9245 133.82 15.6011L128.471 11.0741C127.564 10.3071 128.047 8.84042 129.236 8.7462L136.258 8.1901C136.759 8.15038 137.196 7.83681 137.389 7.37788L140.094 0.952688Z" fill="#006B6A"/>
</g>
<defs>
<clipPath id="clip0_348_7">
<rect width="154.666" height="25.1852" fill="white" transform="translate(0 0.13623)"/>
</clipPath>
</defs>
</svg>
