<svg width="55" height="55" viewBox="0 0 55 55" fill="none" xmlns="http://www.w3.org/2000/svg">
<path d="M27.5002 50.9798C14.5529 50.9798 4.02065 40.4475 4.02065 27.5002H7.37486C7.37486 38.5977 16.4027 47.6255 27.5002 47.6255C38.5976 47.6255 47.6255 38.5977 47.6255 27.5002H50.9797C50.9797 40.4475 40.4474 50.9798 27.5002 50.9798Z" fill="#006B6A"/>
<path d="M27.5002 44.2713C18.2526 44.2713 10.7291 36.7478 10.7291 27.5002H14.0833C14.0833 34.898 20.1024 40.9171 27.5002 40.9171C34.8979 40.9171 40.917 34.898 40.917 27.5002H44.2713C44.2713 36.7478 36.7477 44.2713 27.5002 44.2713Z" fill="#006B6A"/>
<path d="M27.5002 34.2088C23.8005 34.2088 20.7917 31.2001 20.7917 27.5004C20.7917 23.8007 23.8005 20.7919 27.5002 20.7919C31.1999 20.7919 34.2086 23.8007 34.2086 27.5004C34.2086 31.2001 31.1999 34.2088 27.5002 34.2088ZM27.5002 24.1462C25.6503 24.1462 24.146 25.6505 24.146 27.5004C24.146 29.3502 25.6503 30.8546 27.5002 30.8546C29.35 30.8546 30.8544 29.3502 30.8544 27.5004C30.8544 25.6505 29.35 24.1462 27.5002 24.1462ZM27.5002 4.02086C23.4478 4.01742 19.4637 5.06437 15.9366 7.05956C12.4094 9.05476 9.4596 11.9301 7.37486 15.4051V7.37508H4.02065V20.7919H17.4375V17.4377H10.0784C13.6439 11.2576 20.2349 7.37508 27.5002 7.37508C32.8753 7.37508 37.9301 9.46811 41.7304 13.2701L44.1035 10.897C41.9286 8.70932 39.3412 6.97505 36.4911 5.79471C33.641 4.61437 30.585 4.01144 27.5002 4.02086Z" fill="#006B6A"/>
</svg>
