<svg width="25" height="22" viewBox="0 0 25 22" fill="none" xmlns="http://www.w3.org/2000/svg">
<path d="M24.6302 3.6123C24.011 4.43832 23.2624 5.15887 22.4135 5.74611C22.4135 5.96188 22.4135 6.17766 22.4135 6.40543C22.4203 10.3239 20.8551 14.0812 18.0688 16.8351C15.2824 19.589 11.508 21.109 7.59183 21.0543C5.32774 21.0619 3.09265 20.545 1.06165 19.5439C0.952132 19.496 0.881505 19.3878 0.881918 19.2682V19.1363C0.881918 18.9642 1.0214 18.8247 1.19345 18.8247C3.41899 18.7512 5.56512 17.9796 7.32821 16.619C5.3138 16.5783 3.50135 15.385 2.66723 13.55C2.62511 13.4499 2.63821 13.3348 2.70185 13.2467C2.76548 13.1586 2.87043 13.11 2.97876 13.1186C3.59099 13.18 4.20933 13.1231 4.80003 12.9507C2.57628 12.4891 0.905372 10.643 0.666239 8.38336C0.657745 8.27496 0.706318 8.17003 0.794425 8.1063C0.882519 8.0427 0.997412 8.0295 1.0976 8.07176C1.69435 8.3351 2.33855 8.47376 2.99075 8.47923C1.04221 7.20038 0.200572 4.76783 0.941825 2.55739C1.01835 2.3426 1.20217 2.18392 1.42576 2.13968C1.64933 2.09543 1.87971 2.17214 2.03219 2.34162C4.66161 5.1401 8.27448 6.80771 12.109 6.99282C12.0108 6.6009 11.9626 6.19811 11.9652 5.79406C12.0011 3.67539 13.312 1.78804 15.2843 1.01559C17.2564 0.243151 19.4996 0.738471 20.9638 2.26968C21.9616 2.07956 22.9264 1.74436 23.8274 1.27471C23.8934 1.23351 23.9771 1.23351 24.0431 1.27471C24.0843 1.34074 24.0843 1.42446 24.0431 1.49048C23.6067 2.48979 22.8695 3.32792 21.9343 3.88802C22.7532 3.79304 23.5578 3.59986 24.3307 3.31262C24.3958 3.26832 24.4812 3.26832 24.5463 3.31262C24.6008 3.33755 24.6416 3.38524 24.6578 3.44299C24.6739 3.50074 24.6638 3.56267 24.6302 3.6123Z" fill="black"/>
</svg>
